<svg version="1.1" viewBox="0.0 0.0 1280.0 720.0" fill="none" stroke="none" stroke-linecap="square" stroke-miterlimit="10" xmlns:xlink="http://www.w3.org/1999/xlink" xmlns="http://www.w3.org/2000/svg"><clipPath id="g65c91691f4_0_28.0"><path d="m0 0l1280.0 0l0 720.0l-1280.0 0l0 -720.0z" clip-rule="nonzero"/></clipPath><g clip-path="url(#g65c91691f4_0_28.0)"><path fill="#ffffff" d="m0 0l1280.0 0l0 720.0l-1280.0 0z" fill-rule="evenodd"/><path fill="#000000" fill-opacity="0.0" d="m387.24084 30.811577l539.74805 0l0 98.015755l-539.74805 0z" fill-rule="evenodd"/><path fill="#000000" d="m534.53674 65.12533q0 0.125 -0.046875 0.21875q-0.046875 0.09375 -0.203125 0.15625q-0.15625 0.0625 -0.4375 0.09375q-0.28125 0.03125 -0.75 0.03125q-0.40625 0 -0.671875 -0.03125q-0.25 -0.03125 -0.40625 -0.09375q-0.15625 -0.078125 -0.25 -0.203125q-0.078125 -0.125 -0.140625 -0.3125l-1.859375 -4.765625q-0.328125 -0.8125 -0.6875 -1.484375q-0.34375 -0.6875 -0.828125 -1.171875q-0.484375 -0.5 -1.140625 -0.765625q-0.65625 -0.28125 -1.578125 -0.28125l-1.796875 0l0 8.609375q0 0.125 -0.078125 0.21875q-0.0625 0.09375 -0.21875 0.15625q-0.140625 0.046875 -0.40625 0.078125q-0.25 0.046875 -0.640625 0.046875q-0.390625 0 -0.65625 -0.046875q-0.25 -0.03125 -0.40625 -0.078125q-0.15625 -0.0625 -0.21875 -0.15625q-0.0625 -0.09375 -0.0625 -0.21875l0 -18.71875q0 -0.609375 0.3125 -0.84375q0.328125 -0.25 0.6875 -0.25l4.296875 0q0.765625 0 1.265625 0.046875q0.515625 0.03125 0.921875 0.078125q1.171875 0.203125 2.0625 0.640625q0.90625 0.4375 1.515625 1.109375q0.609375 0.671875 0.90625 1.546875q0.3125 0.859375 0.3125 1.90625q0 1.015625 -0.28125 1.828125q-0.265625 0.796875 -0.78125 1.421875q-0.515625 0.609375 -1.234375 1.0625q-0.71875 0.453125 -1.609375 0.765625q0.5 0.21875 0.90625 0.5625q0.40625 0.328125 0.75 0.796875q0.359375 0.46875 0.671875 1.078125q0.3125 0.609375 0.625 1.375l1.8125 4.453125q0.21875 0.5625 0.28125 0.796875q0.0625 0.21875 0.0625 0.34375zm-4.046875 -14.203125q0 -1.1875 -0.53125 -2.0q-0.53125 -0.828125 -1.78125 -1.1875q-0.390625 -0.109375 -0.890625 -0.15625q-0.484375 -0.046875 -1.28125 -0.046875l-2.265625 0l0 6.8125l2.625 0q1.0625 0 1.828125 -0.25q0.78125 -0.265625 1.296875 -0.71875q0.515625 -0.46875 0.75 -1.09375q0.25 -0.625 0.25 -1.359375zm19.640625 6.578125q0 0.609375 -0.3125 0.875q-0.296875 0.25 -0.6875 0.25l-9.21875 0q0 1.171875 0.234375 2.109375q0.234375 0.9375 0.78125 1.609375q0.546875 0.671875 1.421875 1.03125q0.875 0.359375 2.140625 0.359375q1.0 0 1.78125 -0.15625q0.78125 -0.171875 1.34375 -0.375q0.578125 -0.203125 0.9375 -0.359375q0.375 -0.171875 0.5625 -0.171875q0.109375 0 0.1875 0.0625q0.09375 0.046875 0.140625 0.15625q0.046875 0.109375 0.0625 0.3125q0.03125 0.1875 0.03125 0.46875q0 0.203125 -0.015625 0.359375q-0.015625 0.140625 -0.046875 0.265625q-0.015625 0.109375 -0.078125 0.203125q-0.046875 0.09375 -0.140625 0.1875q-0.078125 0.078125 -0.5 0.28125q-0.421875 0.1875 -1.09375 0.375q-0.671875 0.1875 -1.5625 0.328125q-0.875 0.15625 -1.875 0.15625q-1.734375 0 -3.046875 -0.484375q-1.296875 -0.484375 -2.1875 -1.4375q-0.890625 -0.953125 -1.34375 -2.390625q-0.453125 -1.4375 -0.453125 -3.34375q0 -1.8125 0.46875 -3.25q0.46875 -1.453125 1.34375 -2.453125q0.890625 -1.015625 2.140625 -1.546875q1.25 -0.546875 2.796875 -0.546875q1.65625 0 2.8125 0.53125q1.171875 0.53125 1.921875 1.4375q0.75 0.890625 1.09375 2.109375q0.359375 1.203125 0.359375 2.578125l0 0.46875zm-2.59375 -0.765625q0.046875 -2.03125 -0.90625 -3.1875q-0.9375 -1.15625 -2.796875 -1.15625q-0.953125 0 -1.671875 0.359375q-0.71875 0.359375 -1.203125 0.953125q-0.484375 0.59375 -0.75 1.390625q-0.265625 0.78125 -0.296875 1.640625l7.625 0zm9.09375 8.40625q0 0.125 -0.0625 0.21875q-0.0625 0.078125 -0.203125 0.140625q-0.140625 0.0625 -0.390625 0.09375q-0.25 0.03125 -0.640625 0.03125q-0.375 0 -0.625 -0.03125q-0.25 -0.03125 -0.40625 -0.09375q-0.140625 -0.0625 -0.203125 -0.140625q-0.046875 -0.09375 -0.046875 -0.21875l0 -20.875q0 -0.125 0.046875 -0.21875q0.0625 -0.09375 0.203125 -0.15625q0.15625 -0.0625 0.40625 -0.09375q0.25 -0.03125 0.625 -0.03125q0.390625 0 0.640625 0.03125q0.25 0.03125 0.390625 0.09375q0.140625 0.0625 0.203125 0.15625q0.0625 0.09375 0.0625 0.21875l0 20.875zm15.359375 0.015625q0 0.1875 -0.125 0.28125q-0.125 0.09375 -0.34375 0.140625q-0.21875 0.046875 -0.640625 0.046875q-0.40625 0 -0.65625 -0.046875q-0.234375 -0.046875 -0.34375 -0.140625q-0.109375 -0.09375 -0.109375 -0.28125l0 -1.40625q-0.921875 0.984375 -2.0625 1.53125q-1.125 0.546875 -2.390625 0.546875q-1.109375 0 -2.015625 -0.296875q-0.890625 -0.28125 -1.53125 -0.828125q-0.625 -0.546875 -0.984375 -1.34375q-0.34375 -0.796875 -0.34375 -1.8125q0 -1.1875 0.484375 -2.0625q0.484375 -0.875 1.390625 -1.453125q0.90625 -0.578125 2.21875 -0.859375q1.3125 -0.296875 2.953125 -0.296875l1.9375 0l0 -1.09375q0 -0.8125 -0.171875 -1.4375q-0.171875 -0.625 -0.5625 -1.03125q-0.375 -0.421875 -0.984375 -0.625q-0.609375 -0.21875 -1.5 -0.21875q-0.953125 0 -1.71875 0.234375q-0.75 0.21875 -1.328125 0.5q-0.5625 0.265625 -0.953125 0.5q-0.375 0.21875 -0.5625 0.21875q-0.125 0 -0.21875 -0.0625q-0.09375 -0.0625 -0.171875 -0.1875q-0.0625 -0.125 -0.09375 -0.3125q-0.03125 -0.203125 -0.03125 -0.4375q0 -0.390625 0.046875 -0.609375q0.0625 -0.234375 0.265625 -0.4375q0.21875 -0.203125 0.734375 -0.46875q0.515625 -0.28125 1.1875 -0.5q0.671875 -0.234375 1.46875 -0.375q0.796875 -0.15625 1.609375 -0.15625q1.515625 0 2.578125 0.34375q1.0625 0.34375 1.71875 1.015625q0.65625 0.65625 0.953125 1.640625q0.296875 0.984375 0.296875 2.296875l0 9.484375zm-2.5625 -6.421875l-2.203125 0q-1.0625 0 -1.84375 0.1875q-0.78125 0.171875 -1.296875 0.53125q-0.515625 0.34375 -0.765625 0.84375q-0.234375 0.484375 -0.234375 1.125q0 1.09375 0.6875 1.75q0.703125 0.640625 1.953125 0.640625q1.015625 0 1.875 -0.515625q0.875 -0.515625 1.828125 -1.578125l0 -2.984375zm14.609375 5.375q0 0.453125 -0.0625 0.71875q-0.0625 0.265625 -0.1875 0.390625q-0.125 0.125 -0.375 0.234375q-0.25 0.109375 -0.578125 0.171875q-0.3125 0.078125 -0.671875 0.125q-0.359375 0.046875 -0.71875 0.046875q-1.09375 0 -1.875 -0.28125q-0.78125 -0.296875 -1.28125 -0.875q-0.5 -0.59375 -0.734375 -1.484375q-0.21875 -0.90625 -0.21875 -2.125l0 -8.21875l-1.96875 0q-0.234375 0 -0.375 -0.25q-0.140625 -0.25 -0.140625 -0.8125q0 -0.296875 0.03125 -0.5q0.046875 -0.203125 0.109375 -0.328125q0.0625 -0.140625 0.15625 -0.1875q0.109375 -0.0625 0.234375 -0.0625l1.953125 0l0 -3.34375q0 -0.109375 0.046875 -0.203125q0.0625 -0.09375 0.203125 -0.15625q0.15625 -0.078125 0.40625 -0.109375q0.25 -0.03125 0.625 -0.03125q0.390625 0 0.640625 0.03125q0.25 0.03125 0.390625 0.109375q0.140625 0.0625 0.203125 0.15625q0.0625 0.09375 0.0625 0.203125l0 3.34375l3.609375 0q0.125 0 0.21875 0.0625q0.09375 0.046875 0.15625 0.1875q0.078125 0.125 0.109375 0.328125q0.03125 0.203125 0.03125 0.5q0 0.5625 -0.140625 0.8125q-0.140625 0.25 -0.375 0.25l-3.609375 0l0 7.84375q0 1.453125 0.421875 2.203125q0.4375 0.734375 1.546875 0.734375q0.359375 0 0.640625 -0.0625q0.28125 -0.078125 0.5 -0.15625q0.21875 -0.078125 0.375 -0.140625q0.15625 -0.078125 0.28125 -0.078125q0.078125 0 0.140625 0.046875q0.078125 0.03125 0.109375 0.140625q0.046875 0.109375 0.078125 0.296875q0.03125 0.1875 0.03125 0.46875zm5.984375 1.03125q0 0.125 -0.0625 0.21875q-0.0625 0.078125 -0.203125 0.140625q-0.140625 0.0625 -0.390625 0.09375q-0.25 0.03125 -0.640625 0.03125q-0.375 0 -0.625 -0.03125q-0.25 -0.03125 -0.40625 -0.09375q-0.140625 -0.0625 -0.203125 -0.140625q-0.046875 -0.09375 -0.046875 -0.21875l0 -14.0625q0 -0.109375 0.046875 -0.203125q0.0625 -0.09375 0.203125 -0.15625q0.15625 -0.0625 0.40625 -0.09375q0.25 -0.03125 0.625 -0.03125q0.390625 0 0.640625 0.03125q0.25 0.03125 0.390625 0.09375q0.140625 0.0625 0.203125 0.15625q0.0625 0.09375 0.0625 0.203125l0 14.0625zm0.296875 -18.8125q0 0.90625 -0.34375 1.234375q-0.34375 0.328125 -1.265625 0.328125q-0.90625 0 -1.25 -0.3125q-0.328125 -0.328125 -0.328125 -1.21875q0 -0.90625 0.34375 -1.234375q0.34375 -0.328125 1.265625 -0.328125q0.90625 0 1.234375 0.328125q0.34375 0.3125 0.34375 1.203125zm16.0 4.71875q0 0.0625 -0.015625 0.140625q0 0.0625 -0.015625 0.140625q-0.015625 0.078125 -0.046875 0.171875q-0.015625 0.09375 -0.046875 0.203125l-4.796875 13.359375q-0.0625 0.171875 -0.171875 0.28125q-0.09375 0.109375 -0.296875 0.171875q-0.203125 0.0625 -0.515625 0.078125q-0.3125 0.03125 -0.78125 0.03125q-0.46875 0 -0.78125 -0.03125q-0.3125 -0.03125 -0.515625 -0.09375q-0.1875 -0.0625 -0.296875 -0.171875q-0.109375 -0.109375 -0.171875 -0.265625l-4.78125 -13.359375q-0.0625 -0.1875 -0.109375 -0.328125q-0.03125 -0.140625 -0.046875 -0.203125q0 -0.078125 0 -0.125q0 -0.125 0.0625 -0.21875q0.0625 -0.09375 0.203125 -0.140625q0.15625 -0.0625 0.390625 -0.078125q0.25 -0.015625 0.609375 -0.015625q0.453125 0 0.71875 0.03125q0.28125 0.015625 0.421875 0.078125q0.15625 0.0625 0.21875 0.15625q0.078125 0.09375 0.140625 0.234375l3.96875 11.59375l0.0625 0.1875l0.046875 -0.1875l3.921875 -11.59375q0.03125 -0.140625 0.109375 -0.234375q0.078125 -0.09375 0.21875 -0.15625q0.15625 -0.0625 0.40625 -0.078125q0.265625 -0.03125 0.6875 -0.03125q0.359375 0 0.59375 0.015625q0.234375 0.015625 0.359375 0.078125q0.140625 0.0625 0.1875 0.15625q0.0625 0.078125 0.0625 0.203125zm14.921875 6.453125q0 0.609375 -0.3125 0.875q-0.296875 0.25 -0.6875 0.25l-9.21875 0q0 1.171875 0.234375 2.109375q0.234375 0.9375 0.78125 1.609375q0.546875 0.671875 1.421875 1.03125q0.875 0.359375 2.140625 0.359375q1.0 0 1.78125 -0.15625q0.78125 -0.171875 1.34375 -0.375q0.578125 -0.203125 0.9375 -0.359375q0.375 -0.171875 0.5625 -0.171875q0.109375 0 0.1875 0.0625q0.09375 0.046875 0.140625 0.15625q0.046875 0.109375 0.0625 0.3125q0.03125 0.1875 0.03125 0.46875q0 0.203125 -0.015625 0.359375q-0.015625 0.140625 -0.046875 0.265625q-0.015625 0.109375 -0.078125 0.203125q-0.046875 0.09375 -0.140625 0.1875q-0.078125 0.078125 -0.5 0.28125q-0.421875 0.1875 -1.09375 0.375q-0.671875 0.1875 -1.5625 0.328125q-0.875 0.15625 -1.875 0.15625q-1.734375 0 -3.046875 -0.484375q-1.296875 -0.484375 -2.1875 -1.4375q-0.890625 -0.953125 -1.34375 -2.390625q-0.453125 -1.4375 -0.453125 -3.34375q0 -1.8125 0.46875 -3.25q0.46875 -1.453125 1.34375 -2.453125q0.890625 -1.015625 2.140625 -1.546875q1.25 -0.546875 2.796875 -0.546875q1.65625 0 2.8125 0.53125q1.171875 0.53125 1.921875 1.4375q0.75 0.890625 1.09375 2.109375q0.359375 1.203125 0.359375 2.578125l0 0.46875zm-2.59375 -0.765625q0.046875 -2.03125 -0.90625 -3.1875q-0.9375 -1.15625 -2.796875 -1.15625q-0.953125 0 -1.671875 0.359375q-0.71875 0.359375 -1.203125 0.953125q-0.484375 0.59375 -0.75 1.390625q-0.265625 0.78125 -0.296875 1.640625l7.625 0zm27.53125 8.390625q0 0.125 -0.046875 0.21875q-0.046875 0.09375 -0.203125 0.15625q-0.15625 0.0625 -0.4375 0.09375q-0.28125 0.03125 -0.75 0.03125q-0.40625 0 -0.671875 -0.03125q-0.25 -0.03125 -0.40625 -0.09375q-0.15625 -0.078125 -0.25 -0.203125q-0.078125 -0.125 -0.140625 -0.3125l-1.859375 -4.765625q-0.328125 -0.8125 -0.6875 -1.484375q-0.34375 -0.6875 -0.828125 -1.171875q-0.484375 -0.5 -1.140625 -0.765625q-0.65625 -0.28125 -1.578125 -0.28125l-1.796875 0l0 8.609375q0 0.125 -0.078125 0.21875q-0.0625 0.09375 -0.21875 0.15625q-0.140625 0.046875 -0.40625 0.078125q-0.25 0.046875 -0.640625 0.046875q-0.390625 0 -0.65625 -0.046875q-0.25 -0.03125 -0.40625 -0.078125q-0.15625 -0.0625 -0.21875 -0.15625q-0.0625 -0.09375 -0.0625 -0.21875l0 -18.71875q0 -0.609375 0.3125 -0.84375q0.328125 -0.25 0.6875 -0.25l4.296875 0q0.765625 0 1.265625 0.046875q0.515625 0.03125 0.921875 0.078125q1.171875 0.203125 2.0625 0.640625q0.90625 0.4375 1.515625 1.109375q0.609375 0.671875 0.90625 1.546875q0.3125 0.859375 0.3125 1.90625q0 1.015625 -0.28125 1.828125q-0.265625 0.796875 -0.78125 1.421875q-0.515625 0.609375 -1.234375 1.0625q-0.71875 0.453125 -1.609375 0.765625q0.5 0.21875 0.90625 0.5625q0.40625 0.328125 0.75 0.796875q0.359375 0.46875 0.671875 1.078125q0.3125 0.609375 0.625 1.375l1.8125 4.453125q0.21875 0.5625 0.28125 0.796875q0.0625 0.21875 0.0625 0.34375zm-4.046875 -14.203125q0 -1.1875 -0.53125 -2.0q-0.53125 -0.828125 -1.78125 -1.1875q-0.390625 -0.109375 -0.890625 -0.15625q-0.484375 -0.046875 -1.28125 -0.046875l-2.265625 0l0 6.8125l2.625 0q1.0625 0 1.828125 -0.25q0.78125 -0.265625 1.296875 -0.71875q0.515625 -0.46875 0.75 -1.09375q0.25 -0.625 0.25 -1.359375zm20.71875 7.03125q0 1.71875 -0.453125 3.171875q-0.453125 1.4375 -1.359375 2.484375q-0.890625 1.046875 -2.25 1.640625q-1.34375 0.578125 -3.125 0.578125q-1.734375 0 -3.03125 -0.515625q-1.28125 -0.515625 -2.140625 -1.5q-0.859375 -0.984375 -1.28125 -2.390625q-0.421875 -1.40625 -0.421875 -3.1875q0 -1.71875 0.4375 -3.15625q0.453125 -1.453125 1.34375 -2.5q0.90625 -1.046875 2.25 -1.625q1.34375 -0.578125 3.140625 -0.578125q1.734375 0 3.015625 0.515625q1.296875 0.515625 2.15625 1.5q0.859375 0.984375 1.28125 2.390625q0.4375 1.40625 0.4375 3.171875zm-2.71875 0.171875q0 -1.140625 -0.21875 -2.15625q-0.203125 -1.015625 -0.6875 -1.78125q-0.484375 -0.765625 -1.3125 -1.203125q-0.828125 -0.453125 -2.0625 -0.453125q-1.140625 0 -1.96875 0.40625q-0.8125 0.40625 -1.34375 1.15625q-0.53125 0.734375 -0.796875 1.75q-0.25 1.015625 -0.25 2.21875q0 1.15625 0.203125 2.171875q0.21875 1.015625 0.703125 1.78125q0.5 0.75 1.328125 1.203125q0.828125 0.4375 2.0625 0.4375q1.125 0 1.953125 -0.40625q0.828125 -0.40625 1.359375 -1.140625q0.53125 -0.734375 0.78125 -1.75q0.25 -1.015625 0.25 -2.234375zm18.5625 7.015625q0 0.125 -0.0625 0.21875q-0.046875 0.078125 -0.1875 0.140625q-0.140625 0.0625 -0.375 0.09375q-0.21875 0.03125 -0.546875 0.03125q-0.359375 0 -0.59375 -0.03125q-0.21875 -0.03125 -0.359375 -0.09375q-0.125 -0.0625 -0.171875 -0.140625q-0.046875 -0.09375 -0.046875 -0.21875l0 -1.859375q-1.203125 1.328125 -2.375 1.9375q-1.171875 0.609375 -2.375 0.609375q-1.40625 0 -2.375 -0.46875q-0.953125 -0.46875 -1.546875 -1.265625q-0.59375 -0.8125 -0.859375 -1.875q-0.25 -1.078125 -0.25 -2.609375l0 -8.53125q0 -0.125 0.046875 -0.203125q0.0625 -0.09375 0.21875 -0.15625q0.15625 -0.078125 0.40625 -0.09375q0.25 -0.03125 0.625 -0.03125q0.375 0 0.625 0.03125q0.25 0.015625 0.390625 0.09375q0.15625 0.0625 0.21875 0.15625q0.0625 0.078125 0.0625 0.203125l0 8.1875q0 1.234375 0.171875 1.984375q0.1875 0.734375 0.546875 1.265625q0.375 0.515625 0.9375 0.8125q0.5625 0.28125 1.3125 0.28125q0.96875 0 1.921875 -0.6875q0.96875 -0.6875 2.046875 -2.015625l0 -9.828125q0 -0.125 0.046875 -0.203125q0.0625 -0.09375 0.21875 -0.15625q0.15625 -0.078125 0.390625 -0.09375q0.25 -0.03125 0.640625 -0.03125q0.375 0 0.625 0.03125q0.25 0.015625 0.390625 0.09375q0.140625 0.0625 0.203125 0.15625q0.078125 0.078125 0.078125 0.203125l0 14.0625zm12.078125 -1.03125q0 0.453125 -0.0625 0.71875q-0.0625 0.265625 -0.1875 0.390625q-0.125 0.125 -0.375 0.234375q-0.25 0.109375 -0.578125 0.171875q-0.3125 0.078125 -0.671875 0.125q-0.359375 0.046875 -0.71875 0.046875q-1.09375 0 -1.875 -0.28125q-0.78125 -0.296875 -1.28125 -0.875q-0.5 -0.59375 -0.734375 -1.484375q-0.21875 -0.90625 -0.21875 -2.125l0 -8.21875l-1.96875 0q-0.234375 0 -0.375 -0.25q-0.140625 -0.25 -0.140625 -0.8125q0 -0.296875 0.03125 -0.5q0.046875 -0.203125 0.109375 -0.328125q0.0625 -0.140625 0.15625 -0.1875q0.109375 -0.0625 0.234375 -0.0625l1.953125 0l0 -3.34375q0 -0.109375 0.046875 -0.203125q0.0625 -0.09375 0.203125 -0.15625q0.15625 -0.078125 0.40625 -0.109375q0.25 -0.03125 0.625 -0.03125q0.390625 0 0.640625 0.03125q0.25 0.03125 0.390625 0.109375q0.140625 0.0625 0.203125 0.15625q0.0625 0.09375 0.0625 0.203125l0 3.34375l3.609375 0q0.125 0 0.21875 0.0625q0.09375 0.046875 0.15625 0.1875q0.078125 0.125 0.109375 0.328125q0.03125 0.203125 0.03125 0.5q0 0.5625 -0.140625 0.8125q-0.140625 0.25 -0.375 0.25l-3.609375 0l0 7.84375q0 1.453125 0.421875 2.203125q0.4375 0.734375 1.546875 0.734375q0.359375 0 0.640625 -0.0625q0.28125 -0.078125 0.5 -0.15625q0.21875 -0.078125 0.375 -0.140625q0.15625 -0.078125 0.28125 -0.078125q0.078125 0 0.140625 0.046875q0.078125 0.03125 0.109375 0.140625q0.046875 0.109375 0.078125 0.296875q0.03125 0.1875 0.03125 0.46875zm15.40625 -6.609375q0 0.609375 -0.3125 0.875q-0.296875 0.25 -0.6875 0.25l-9.21875 0q0 1.171875 0.234375 2.109375q0.234375 0.9375 0.78125 1.609375q0.546875 0.671875 1.421875 1.03125q0.875 0.359375 2.140625 0.359375q1.0 0 1.78125 -0.15625q0.78125 -0.171875 1.34375 -0.375q0.578125 -0.203125 0.9375 -0.359375q0.375 -0.171875 0.5625 -0.171875q0.109375 0 0.1875 0.0625q0.09375 0.046875 0.140625 0.15625q0.046875 0.109375 0.0625 0.3125q0.03125 0.1875 0.03125 0.46875q0 0.203125 -0.015625 0.359375q-0.015625 0.140625 -0.046875 0.265625q-0.015625 0.109375 -0.078125 0.203125q-0.046875 0.09375 -0.140625 0.1875q-0.078125 0.078125 -0.5 0.28125q-0.421875 0.1875 -1.09375 0.375q-0.671875 0.1875 -1.5625 0.328125q-0.875 0.15625 -1.875 0.15625q-1.734375 0 -3.046875 -0.484375q-1.296875 -0.484375 -2.1875 -1.4375q-0.890625 -0.953125 -1.34375 -2.390625q-0.453125 -1.4375 -0.453125 -3.34375q0 -1.8125 0.46875 -3.25q0.46875 -1.453125 1.34375 -2.453125q0.890625 -1.015625 2.140625 -1.546875q1.25 -0.546875 2.796875 -0.546875q1.65625 0 2.8125 0.53125q1.171875 0.53125 1.921875 1.4375q0.75 0.890625 1.09375 2.109375q0.359375 1.203125 0.359375 2.578125l0 0.46875zm-2.59375 -0.765625q0.046875 -2.03125 -0.90625 -3.1875q-0.9375 -1.15625 -2.796875 -1.15625q-0.953125 0 -1.671875 0.359375q-0.71875 0.359375 -1.203125 0.953125q-0.484375 0.59375 -0.75 1.390625q-0.265625 0.78125 -0.296875 1.640625l7.625 0zm24.90625 3.125q0 1.421875 -0.53125 2.53125q-0.515625 1.109375 -1.453125 1.890625q-0.921875 0.765625 -2.1875 1.15625q-1.25 0.390625 -2.703125 0.390625q-1.015625 0 -1.890625 -0.171875q-0.859375 -0.171875 -1.546875 -0.421875q-0.671875 -0.25 -1.140625 -0.515625q-0.453125 -0.265625 -0.640625 -0.453125q-0.171875 -0.1875 -0.265625 -0.46875q-0.078125 -0.296875 -0.078125 -0.78125q0 -0.34375 0.03125 -0.5625q0.03125 -0.234375 0.09375 -0.375q0.0625 -0.140625 0.15625 -0.1875q0.09375 -0.0625 0.21875 -0.0625q0.21875 0 0.609375 0.265625q0.40625 0.265625 1.03125 0.578125q0.625 0.3125 1.5 0.59375q0.890625 0.265625 2.046875 0.265625q0.875 0 1.59375 -0.234375q0.734375 -0.234375 1.25 -0.65625q0.53125 -0.4375 0.8125 -1.0625q0.28125 -0.625 0.28125 -1.421875q0 -0.859375 -0.390625 -1.46875q-0.390625 -0.609375 -1.03125 -1.0625q-0.640625 -0.46875 -1.46875 -0.84375q-0.8125 -0.390625 -1.671875 -0.78125q-0.859375 -0.40625 -1.671875 -0.890625q-0.8125 -0.484375 -1.453125 -1.140625q-0.640625 -0.65625 -1.046875 -1.53125q-0.390625 -0.890625 -0.390625 -2.125q0 -1.265625 0.453125 -2.25q0.46875 -1.0 1.28125 -1.671875q0.828125 -0.671875 1.953125 -1.015625q1.140625 -0.359375 2.453125 -0.359375q0.671875 0 1.34375 0.125q0.6875 0.109375 1.28125 0.3125q0.609375 0.1875 1.078125 0.4375q0.46875 0.234375 0.609375 0.390625q0.15625 0.140625 0.203125 0.234375q0.046875 0.078125 0.078125 0.21875q0.03125 0.125 0.046875 0.3125q0.015625 0.1875 0.015625 0.484375q0 0.28125 -0.03125 0.5q-0.015625 0.21875 -0.0625 0.375q-0.046875 0.140625 -0.140625 0.21875q-0.078125 0.0625 -0.1875 0.0625q-0.171875 0 -0.546875 -0.21875q-0.359375 -0.21875 -0.890625 -0.484375q-0.53125 -0.28125 -1.265625 -0.5q-0.71875 -0.234375 -1.625 -0.234375q-0.84375 0 -1.46875 0.234375q-0.625 0.21875 -1.03125 0.59375q-0.40625 0.375 -0.609375 0.890625q-0.203125 0.515625 -0.203125 1.09375q0 0.84375 0.390625 1.453125q0.390625 0.609375 1.03125 1.078125q0.65625 0.46875 1.484375 0.859375q0.828125 0.390625 1.6875 0.796875q0.859375 0.390625 1.6875 0.875q0.828125 0.46875 1.46875 1.125q0.65625 0.640625 1.046875 1.53125q0.40625 0.875 0.40625 2.078125zm14.140625 5.296875q0 0.1875 -0.125 0.28125q-0.125 0.09375 -0.34375 0.140625q-0.21875 0.046875 -0.640625 0.046875q-0.40625 0 -0.65625 -0.046875q-0.234375 -0.046875 -0.34375 -0.140625q-0.109375 -0.09375 -0.109375 -0.28125l0 -1.40625q-0.921875 0.984375 -2.0625 1.53125q-1.125 0.546875 -2.390625 0.546875q-1.109375 0 -2.015625 -0.296875q-0.890625 -0.28125 -1.53125 -0.828125q-0.625 -0.546875 -0.984375 -1.34375q-0.34375 -0.796875 -0.34375 -1.8125q0 -1.1875 0.484375 -2.0625q0.484375 -0.875 1.390625 -1.453125q0.90625 -0.578125 2.21875 -0.859375q1.3125 -0.296875 2.953125 -0.296875l1.9375 0l0 -1.09375q0 -0.8125 -0.171875 -1.4375q-0.171875 -0.625 -0.5625 -1.03125q-0.375 -0.421875 -0.984375 -0.625q-0.609375 -0.21875 -1.5 -0.21875q-0.953125 0 -1.71875 0.234375q-0.75 0.21875 -1.328125 0.5q-0.5625 0.265625 -0.953125 0.5q-0.375 0.21875 -0.5625 0.21875q-0.125 0 -0.21875 -0.0625q-0.09375 -0.0625 -0.171875 -0.1875q-0.0625 -0.125 -0.09375 -0.3125q-0.03125 -0.203125 -0.03125 -0.4375q0 -0.390625 0.046875 -0.609375q0.0625 -0.234375 0.265625 -0.4375q0.21875 -0.203125 0.734375 -0.46875q0.515625 -0.28125 1.1875 -0.5q0.671875 -0.234375 1.46875 -0.375q0.796875 -0.15625 1.609375 -0.15625q1.515625 0 2.578125 0.34375q1.0625 0.34375 1.71875 1.015625q0.65625 0.65625 0.953125 1.640625q0.296875 0.984375 0.296875 2.296875l0 9.484375zm-2.5625 -6.421875l-2.203125 0q-1.0625 0 -1.84375 0.1875q-0.78125 0.171875 -1.296875 0.53125q-0.515625 0.34375 -0.765625 0.84375q-0.234375 0.484375 -0.234375 1.125q0 1.09375 0.6875 1.75q0.703125 0.640625 1.953125 0.640625q1.015625 0 1.875 -0.515625q0.875 -0.515625 1.828125 -1.578125l0 -2.984375zm15.0 -13.4375q0 0.296875 -0.03125 0.484375q-0.03125 0.171875 -0.078125 0.28125q-0.03125 0.109375 -0.09375 0.15625q-0.0625 0.03125 -0.15625 0.03125q-0.109375 0 -0.28125 -0.0625q-0.15625 -0.078125 -0.390625 -0.15625q-0.234375 -0.09375 -0.5625 -0.15625q-0.3125 -0.078125 -0.734375 -0.078125q-0.578125 0 -0.984375 0.1875q-0.40625 0.1875 -0.65625 0.59375q-0.25 0.390625 -0.359375 1.03125q-0.109375 0.625 -0.109375 1.53125l0 1.53125l3.140625 0q0.125 0 0.203125 0.0625q0.09375 0.046875 0.15625 0.1875q0.078125 0.125 0.109375 0.328125q0.046875 0.203125 0.046875 0.5q0 0.5625 -0.140625 0.8125q-0.140625 0.25 -0.375 0.25l-3.140625 0l0 12.328125q0 0.125 -0.0625 0.21875q-0.0625 0.078125 -0.21875 0.140625q-0.140625 0.0625 -0.390625 0.09375q-0.25 0.03125 -0.625 0.03125q-0.375 0 -0.625 -0.03125q-0.25 -0.03125 -0.40625 -0.09375q-0.140625 -0.0625 -0.203125 -0.140625q-0.0625 -0.09375 -0.0625 -0.21875l0 -12.328125l-1.984375 0q-0.25 0 -0.375 -0.25q-0.125 -0.25 -0.125 -0.8125q0 -0.296875 0.03125 -0.5q0.03125 -0.203125 0.09375 -0.328125q0.0625 -0.140625 0.15625 -0.1875q0.09375 -0.0625 0.21875 -0.0625l1.984375 0l0 -1.453125q0 -1.46875 0.265625 -2.515625q0.28125 -1.0625 0.84375 -1.734375q0.5625 -0.671875 1.40625 -0.984375q0.859375 -0.328125 2.015625 -0.328125q0.546875 0 1.0625 0.109375q0.515625 0.09375 0.796875 0.21875q0.28125 0.109375 0.375 0.203125q0.09375 0.09375 0.15625 0.25q0.0625 0.140625 0.078125 0.359375q0.03125 0.203125 0.03125 0.5zm14.0625 12.203125q0 0.609375 -0.3125 0.875q-0.296875 0.25 -0.6875 0.25l-9.21875 0q0 1.171875 0.234375 2.109375q0.234375 0.9375 0.78125 1.609375q0.546875 0.671875 1.421875 1.03125q0.875 0.359375 2.140625 0.359375q1.0 0 1.78125 -0.15625q0.78125 -0.171875 1.34375 -0.375q0.578125 -0.203125 0.9375 -0.359375q0.375 -0.171875 0.5625 -0.171875q0.109375 0 0.1875 0.0625q0.09375 0.046875 0.140625 0.15625q0.046875 0.109375 0.0625 0.3125q0.03125 0.1875 0.03125 0.46875q0 0.203125 -0.015625 0.359375q-0.015625 0.140625 -0.046875 0.265625q-0.015625 0.109375 -0.078125 0.203125q-0.046875 0.09375 -0.140625 0.1875q-0.078125 0.078125 -0.5 0.28125q-0.421875 0.1875 -1.09375 0.375q-0.671875 0.1875 -1.5625 0.328125q-0.875 0.15625 -1.875 0.15625q-1.734375 0 -3.046875 -0.484375q-1.296875 -0.484375 -2.1875 -1.4375q-0.890625 -0.953125 -1.34375 -2.390625q-0.453125 -1.4375 -0.453125 -3.34375q0 -1.8125 0.46875 -3.25q0.46875 -1.453125 1.34375 -2.453125q0.890625 -1.015625 2.140625 -1.546875q1.25 -0.546875 2.796875 -0.546875q1.65625 0 2.8125 0.53125q1.171875 0.53125 1.921875 1.4375q0.75 0.890625 1.09375 2.109375q0.359375 1.203125 0.359375 2.578125l0 0.46875zm-2.59375 -0.765625q0.046875 -2.03125 -0.90625 -3.1875q-0.9375 -1.15625 -2.796875 -1.15625q-0.953125 0 -1.671875 0.359375q-0.71875 0.359375 -1.203125 0.953125q-0.484375 0.59375 -0.75 1.390625q-0.265625 0.78125 -0.296875 1.640625l7.625 0zm13.828125 7.375q0 0.453125 -0.0625 0.71875q-0.0625 0.265625 -0.1875 0.390625q-0.125 0.125 -0.375 0.234375q-0.25 0.109375 -0.578125 0.171875q-0.3125 0.078125 -0.671875 0.125q-0.359375 0.046875 -0.71875 0.046875q-1.09375 0 -1.875 -0.28125q-0.78125 -0.296875 -1.28125 -0.875q-0.5 -0.59375 -0.734375 -1.484375q-0.21875 -0.90625 -0.21875 -2.125l0 -8.21875l-1.96875 0q-0.234375 0 -0.375 -0.25q-0.140625 -0.25 -0.140625 -0.8125q0 -0.296875 0.03125 -0.5q0.046875 -0.203125 0.109375 -0.328125q0.0625 -0.140625 0.15625 -0.1875q0.109375 -0.0625 0.234375 -0.0625l1.953125 0l0 -3.34375q0 -0.109375 0.046875 -0.203125q0.0625 -0.09375 0.203125 -0.15625q0.15625 -0.078125 0.40625 -0.109375q0.25 -0.03125 0.625 -0.03125q0.390625 0 0.640625 0.03125q0.25 0.03125 0.390625 0.109375q0.140625 0.0625 0.203125 0.15625q0.0625 0.09375 0.0625 0.203125l0 3.34375l3.609375 0q0.125 0 0.21875 0.0625q0.09375 0.046875 0.15625 0.1875q0.078125 0.125 0.109375 0.328125q0.03125 0.203125 0.03125 0.5q0 0.5625 -0.140625 0.8125q-0.140625 0.25 -0.375 0.25l-3.609375 0l0 7.84375q0 1.453125 0.421875 2.203125q0.4375 0.734375 1.546875 0.734375q0.359375 0 0.640625 -0.0625q0.28125 -0.078125 0.5 -0.15625q0.21875 -0.078125 0.375 -0.140625q0.15625 -0.078125 0.28125 -0.078125q0.078125 0 0.140625 0.046875q0.078125 0.03125 0.109375 0.140625q0.046875 0.109375 0.078125 0.296875q0.03125 0.1875 0.03125 0.46875zm9.8125 1.421875l-1.875 5.171875q-0.09375 0.25 -0.484375 0.375q-0.375 0.140625 -1.15625 0.140625q-0.40625 0 -0.65625 -0.046875q-0.25 -0.03125 -0.390625 -0.125q-0.125 -0.09375 -0.140625 -0.25q-0.015625 -0.15625 0.078125 -0.375l1.9375 -4.890625q-0.140625 -0.0625 -0.265625 -0.203125q-0.125 -0.140625 -0.171875 -0.296875l-5.015625 -13.4375q-0.125 -0.328125 -0.125 -0.515625q0 -0.1875 0.125 -0.296875q0.125 -0.109375 0.40625 -0.140625q0.28125 -0.046875 0.75 -0.046875q0.46875 0 0.734375 0.03125q0.265625 0.015625 0.421875 0.078125q0.15625 0.0625 0.21875 0.1875q0.078125 0.109375 0.15625 0.3125l4.015625 11.28125l0.046875 0l3.875 -11.34375q0.09375 -0.296875 0.21875 -0.375q0.140625 -0.09375 0.40625 -0.125q0.265625 -0.046875 0.765625 -0.046875q0.4375 0 0.71875 0.046875q0.28125 0.03125 0.40625 0.140625q0.140625 0.109375 0.140625 0.296875q0 0.1875 -0.09375 0.46875l-5.046875 13.984375z" fill-rule="nonzero"/><defs><linearGradient id="g65c91691f4_0_28.1" gradientUnits="userSpaceOnUse" gradientTransform="matrix(29.05033100436645 0.0 0.0 29.05033100436645 0.0 0.0)" spreadMethod="pad" x1="8.058978679463202" y1="13.191114474403129" x2="37.10930968382965" y2="13.191114474403129"><stop offset="0.0" stop-color="#ff0000"/><stop offset="0.52" stop-color="#ffffff"/><stop offset="1.0" stop-color="#00b050"/></linearGradient></defs><path fill="url(#g65c91691f4_0_28.1)" d="m234.11598 332.153l843.92175 0l0 51.053223l-843.92175 0z" fill-rule="evenodd"/><path fill="#000000" fill-opacity="0.0" d="m107.83146 326.04312l132.49997 0l0 62.340485l-132.49997 0z" fill-rule="evenodd"/><path fill="#000000" d="m130.25334 347.47372q0 1.390625 -0.40625 2.484375q-0.40625 1.078125 -1.15625 1.828125q-0.7500076 0.75 -1.8281326 1.140625q-1.078125 0.375 -2.453125 0.375q-1.25 0 -2.28125 -0.359375q-1.03125 -0.359375 -1.765625 -1.0625q-0.734375 -0.71875 -1.140625 -1.78125q-0.390625 -1.078125 -0.390625 -2.46875l0 -9.40625q0 -0.09375 0.046875 -0.15625q0.046875 -0.078125 0.15625 -0.109375q0.125 -0.046875 0.3125 -0.078125q0.1875 -0.03125 0.484375 -0.03125q0.28125 0 0.484375 0.03125q0.203125 0.03125 0.3125 0.078125q0.109375 0.03125 0.15625 0.109375q0.046875 0.0625 0.046875 0.15625l0 9.15625q0 1.0625 0.25 1.84375q0.265625 0.78125 0.75 1.3125q0.484375 0.515625 1.171875 0.78125q0.6875 0.265625 1.546875 0.265625q0.875 0 1.5625 -0.25q0.6875 -0.265625 1.15625 -0.78125q0.46875 -0.515625 0.71875 -1.28125q0.26563263 -0.765625 0.26563263 -1.78125l0 -9.265625q0 -0.09375 0.046875 -0.15625q0.046875 -0.078125 0.15625 -0.109375q0.125 -0.046875 0.3125 -0.078125q0.1875 -0.03125 0.484375 -0.03125q0.28125 0 0.46875 0.03125q0.203125 0.03125 0.3125 0.078125q0.109375 0.03125 0.15625 0.109375q0.0625 0.0625 0.0625 0.15625l0 9.25zm12.8515625 5.3125q0 0.09375 -0.046875 0.15625q-0.046875 0.0625 -0.15625 0.125q-0.09375 0.046875 -0.28125 0.0625q-0.1875 0.03125 -0.46875 0.03125q-0.296875 0 -0.484375 -0.03125q-0.1875 -0.015625 -0.296875 -0.0625q-0.109375 -0.0625 -0.15625 -0.125q-0.046875 -0.0625 -0.046875 -0.15625l0 -6.171875q0 -0.90625 -0.140625 -1.453125q-0.140625 -0.546875 -0.40625 -0.9375q-0.265625 -0.40625 -0.703125 -0.609375q-0.421875 -0.21875 -0.984375 -0.21875q-0.71875 0 -1.453125 0.515625q-0.71875 0.515625 -1.515625 1.5l0 7.375q0 0.09375 -0.046875 0.15625q-0.046875 0.0625 -0.15625 0.125q-0.109375 0.046875 -0.296875 0.0625q-0.1875 0.03125 -0.484375 0.03125q-0.28125 0 -0.46875 -0.03125q-0.1875 -0.015625 -0.296875 -0.0625q-0.109375 -0.0625 -0.15625 -0.125q-0.03125 -0.0625 -0.03125 -0.15625l0 -10.546875q0 -0.09375 0.03125 -0.15625q0.03125 -0.0625 0.140625 -0.109375q0.109375 -0.0625 0.265625 -0.078125q0.171875 -0.015625 0.4375 -0.015625q0.265625 0 0.421875 0.015625q0.171875 0.015625 0.265625 0.078125q0.09375 0.046875 0.140625 0.109375q0.046875 0.0625 0.046875 0.15625l0 1.390625q0.890625 -0.984375 1.765625 -1.453125q0.890625 -0.46875 1.796875 -0.46875q1.046875 0 1.765625 0.359375q0.71875 0.359375 1.15625 0.96875q0.453125 0.59375 0.640625 1.390625q0.203125 0.796875 0.203125 1.921875l0 6.4375zm10.15625 -2.875q0 0.8125 -0.3125 1.453125q-0.296875 0.625 -0.84375 1.0625q-0.546875 0.4375 -1.3125 0.65625q-0.765625 0.21875 -1.671875 0.21875q-0.5625 0 -1.078125 -0.09375q-0.5 -0.078125 -0.90625 -0.203125q-0.40625 -0.140625 -0.6875 -0.28125q-0.28125 -0.15625 -0.421875 -0.265625q-0.125 -0.125 -0.1875 -0.328125q-0.046875 -0.21875 -0.046875 -0.578125q0 -0.234375 0.015625 -0.375q0.03125 -0.15625 0.0625 -0.25q0.03125 -0.09375 0.09375 -0.125q0.078125 -0.046875 0.15625 -0.046875q0.125 0 0.375 0.15625q0.25 0.15625 0.625 0.34375q0.375 0.1875 0.875 0.34375q0.5 0.15625 1.15625 0.15625q0.5 0 0.890625 -0.09375q0.40625 -0.109375 0.6875 -0.3125q0.296875 -0.21875 0.453125 -0.53125q0.15625 -0.3125 0.15625 -0.75q0 -0.4375 -0.234375 -0.734375q-0.21875 -0.3125 -0.59375 -0.546875q-0.375 -0.234375 -0.84375 -0.421875q-0.46875 -0.1875 -0.96875 -0.375q-0.5 -0.203125 -0.96875 -0.453125q-0.46875 -0.25 -0.84375 -0.609375q-0.375 -0.375 -0.609375 -0.875q-0.234375 -0.5 -0.234375 -1.203125q0 -0.625 0.234375 -1.1875q0.25 -0.578125 0.734375 -1.0q0.484375 -0.4375 1.203125 -0.6875q0.71875 -0.265625 1.671875 -0.265625q0.421875 0 0.84375 0.078125q0.421875 0.0625 0.765625 0.171875q0.34375 0.109375 0.578125 0.234375q0.25 0.125 0.359375 0.21875q0.125 0.09375 0.171875 0.171875q0.046875 0.0625 0.0625 0.15625q0.015625 0.078125 0.03125 0.203125q0.015625 0.125 0.015625 0.3125q0 0.203125 -0.015625 0.359375q-0.015625 0.140625 -0.0625 0.234375q-0.03125 0.09375 -0.09375 0.140625q-0.0625 0.03125 -0.125 0.03125q-0.109375 0 -0.3125 -0.125q-0.203125 -0.125 -0.515625 -0.265625q-0.3125 -0.15625 -0.75 -0.28125q-0.421875 -0.140625 -0.96875 -0.140625q-0.5 0 -0.875 0.125q-0.375 0.109375 -0.609375 0.3125q-0.234375 0.203125 -0.359375 0.484375q-0.125 0.28125 -0.125 0.609375q0 0.453125 0.234375 0.765625q0.234375 0.3125 0.609375 0.546875q0.375 0.234375 0.84375 0.421875q0.484375 0.1875 0.984375 0.390625q0.5 0.1875 0.984375 0.4375q0.484375 0.25 0.859375 0.609375q0.375 0.34375 0.609375 0.84375q0.234375 0.484375 0.234375 1.15625zm10.699219 2.890625q0 0.140625 -0.09375 0.21875q-0.09375 0.0625 -0.265625 0.09375q-0.15625 0.046875 -0.46875 0.046875q-0.296875 0 -0.484375 -0.046875q-0.1875 -0.03125 -0.265625 -0.09375q-0.078125 -0.078125 -0.078125 -0.21875l0 -1.0625q-0.6875 0.75 -1.546875 1.15625q-0.84375 0.40625 -1.796875 0.40625q-0.828125 0 -1.5 -0.21875q-0.671875 -0.21875 -1.15625 -0.625q-0.46875 -0.40625 -0.734375 -1.0q-0.265625 -0.609375 -0.265625 -1.359375q0 -0.890625 0.359375 -1.546875q0.375 -0.65625 1.046875 -1.09375q0.6875 -0.4375 1.671875 -0.65625q0.984375 -0.21875 2.203125 -0.21875l1.453125 0l0 -0.8125q0 -0.609375 -0.125 -1.078125q-0.125 -0.46875 -0.421875 -0.78125q-0.28125 -0.3125 -0.734375 -0.46875q-0.453125 -0.15625 -1.125 -0.15625q-0.71875 0 -1.296875 0.171875q-0.5625 0.171875 -0.984375 0.375q-0.421875 0.203125 -0.71875 0.375q-0.28125 0.171875 -0.421875 0.171875q-0.09375 0 -0.171875 -0.046875q-0.0625 -0.046875 -0.125 -0.140625q-0.046875 -0.09375 -0.078125 -0.234375q-0.015625 -0.15625 -0.015625 -0.328125q0 -0.296875 0.03125 -0.46875q0.046875 -0.171875 0.203125 -0.3125q0.171875 -0.15625 0.546875 -0.359375q0.390625 -0.21875 0.890625 -0.375q0.515625 -0.171875 1.109375 -0.28125q0.59375 -0.125 1.203125 -0.125q1.140625 0 1.9375 0.265625q0.796875 0.25 1.28125 0.75q0.5 0.5 0.71875 1.25q0.21875 0.734375 0.21875 1.71875l0 7.109375zm-1.921875 -4.8125l-1.640625 0q-0.796875 0 -1.390625 0.140625q-0.578125 0.125 -0.96875 0.390625q-0.390625 0.265625 -0.578125 0.640625q-0.171875 0.359375 -0.171875 0.84375q0 0.8125 0.515625 1.296875q0.53125 0.484375 1.46875 0.484375q0.75 0 1.40625 -0.375q0.65625 -0.390625 1.359375 -1.1875l0 -2.234375zm11.261719 -10.078125q0 0.21875 -0.03125 0.359375q-0.015625 0.125 -0.046875 0.21875q-0.03125 0.078125 -0.078125 0.109375q-0.046875 0.015625 -0.125 0.015625q-0.078125 0 -0.203125 -0.046875q-0.125 -0.046875 -0.296875 -0.109375q-0.171875 -0.078125 -0.421875 -0.125q-0.234375 -0.046875 -0.546875 -0.046875q-0.4375 0 -0.75 0.140625q-0.296875 0.140625 -0.484375 0.4375q-0.1875 0.296875 -0.265625 0.78125q-0.078125 0.46875 -0.078125 1.140625l0 1.15625l2.34375 0q0.09375 0 0.15625 0.046875q0.078125 0.03125 0.125 0.140625q0.046875 0.09375 0.078125 0.25q0.03125 0.140625 0.03125 0.359375q0 0.421875 -0.109375 0.609375q-0.09375 0.1875 -0.28125 0.1875l-2.34375 0l0 9.25q0 0.09375 -0.046875 0.15625q-0.046875 0.0625 -0.171875 0.125q-0.109375 0.046875 -0.296875 0.0625q-0.1875 0.03125 -0.46875 0.03125q-0.28125 0 -0.46875 -0.03125q-0.1875 -0.015625 -0.296875 -0.0625q-0.109375 -0.0625 -0.15625 -0.125q-0.046875 -0.0625 -0.046875 -0.15625l0 -9.25l-1.484375 0q-0.1875 0 -0.28125 -0.1875q-0.09375 -0.1875 -0.09375 -0.609375q0 -0.21875 0.015625 -0.359375q0.03125 -0.15625 0.078125 -0.25q0.046875 -0.109375 0.109375 -0.140625q0.078125 -0.046875 0.171875 -0.046875l1.484375 0l0 -1.09375q0 -1.109375 0.203125 -1.890625q0.203125 -0.796875 0.625 -1.296875q0.421875 -0.5 1.0625 -0.734375q0.640625 -0.25 1.515625 -0.25q0.40625 0 0.78125 0.078125q0.390625 0.078125 0.59375 0.171875q0.21875 0.078125 0.28125 0.15625q0.078125 0.0625 0.125 0.171875q0.046875 0.109375 0.0625 0.265625q0.03125 0.15625 0.03125 0.390625zm10.542969 9.140625q0 0.46875 -0.234375 0.65625q-0.21875 0.1875 -0.515625 0.1875l-6.921875 0q0 0.890625 0.171875 1.59375q0.1875 0.703125 0.59375 1.203125q0.40625 0.5 1.0625 0.78125q0.65625 0.265625 1.609375 0.265625q0.75 0 1.328125 -0.125q0.59375 -0.125 1.015625 -0.28125q0.4375 -0.15625 0.703125 -0.265625q0.28125 -0.125 0.421875 -0.125q0.078125 0 0.140625 0.046875q0.078125 0.03125 0.109375 0.109375q0.03125 0.078125 0.046875 0.234375q0.015625 0.140625 0.015625 0.359375q0 0.140625 -0.015625 0.265625q0 0.109375 -0.015625 0.203125q-0.015625 0.078125 -0.0625 0.15625q-0.046875 0.0625 -0.109375 0.125q-0.0625 0.0625 -0.375 0.21875q-0.3125 0.140625 -0.828125 0.28125q-0.5 0.140625 -1.171875 0.25q-0.65625 0.109375 -1.40625 0.109375q-1.296875 0 -2.28125 -0.359375q-0.96875 -0.359375 -1.640625 -1.078125q-0.671875 -0.71875 -1.015625 -1.796875q-0.328125 -1.078125 -0.328125 -2.5q0 -1.359375 0.34375 -2.4375q0.359375 -1.09375 1.015625 -1.84375q0.671875 -0.765625 1.609375 -1.171875q0.9375 -0.40625 2.09375 -0.40625q1.234375 0 2.109375 0.40625q0.875 0.390625 1.4375 1.078125q0.5625 0.671875 0.828125 1.578125q0.265625 0.90625 0.265625 1.9375l0 0.34375zm-1.953125 -0.5625q0.046875 -1.53125 -0.671875 -2.390625q-0.703125 -0.875 -2.09375 -0.875q-0.71875 0 -1.265625 0.28125q-0.53125 0.265625 -0.90625 0.71875q-0.359375 0.4375 -0.5625 1.03125q-0.1875 0.578125 -0.21875 1.234375l5.71875 0z" fill-rule="nonzero"/><path fill="#000000" fill-opacity="0.0" d="m1073.9004 331.61673l132.5 0l0 62.340485l-132.5 0z" fill-rule="evenodd"/><path fill="#000000" d="m1093.0566 354.4067q0 1.0625 -0.390625 1.890625q-0.390625 0.828125 -1.09375 1.421875q-0.6875 0.578125 -1.640625 0.875q-0.9375 0.28125 -2.03125 0.28125q-0.75 0 -1.40625 -0.125q-0.65625 -0.125 -1.171875 -0.3125q-0.5 -0.1875 -0.84375 -0.390625q-0.34375 -0.203125 -0.484375 -0.34375q-0.125 -0.140625 -0.203125 -0.359375q-0.0625 -0.21875 -0.0625 -0.578125q0 -0.25 0.015625 -0.421875q0.03125 -0.171875 0.078125 -0.28125q0.046875 -0.109375 0.109375 -0.140625q0.078125 -0.046875 0.171875 -0.046875q0.171875 0 0.46875 0.203125q0.296875 0.203125 0.765625 0.4375q0.46875 0.234375 1.125 0.4375q0.671875 0.203125 1.53125 0.203125q0.65625 0 1.203125 -0.171875q0.546875 -0.1875 0.9375 -0.5q0.390625 -0.328125 0.59375 -0.796875q0.21875 -0.46875 0.21875 -1.0625q0 -0.640625 -0.296875 -1.09375q-0.28125 -0.46875 -0.765625 -0.8125q-0.484375 -0.34375 -1.09375 -0.625q-0.609375 -0.296875 -1.265625 -0.59375q-0.640625 -0.296875 -1.25 -0.65625q-0.609375 -0.375 -1.09375 -0.859375q-0.46875 -0.5 -0.78125 -1.15625q-0.296875 -0.65625 -0.296875 -1.59375q0 -0.9375 0.34375 -1.6875q0.359375 -0.75 0.96875 -1.25q0.609375 -0.5 1.453125 -0.765625q0.859375 -0.265625 1.84375 -0.265625q0.5 0 1.015625 0.09375q0.515625 0.078125 0.953125 0.234375q0.453125 0.140625 0.796875 0.328125q0.359375 0.171875 0.46875 0.296875q0.125 0.109375 0.15625 0.171875q0.03125 0.0625 0.046875 0.171875q0.03125 0.09375 0.046875 0.234375q0.015625 0.140625 0.015625 0.359375q0 0.203125 -0.03125 0.375q-0.015625 0.15625 -0.046875 0.28125q-0.03125 0.109375 -0.09375 0.15625q-0.0625 0.046875 -0.15625 0.046875q-0.125 0 -0.40625 -0.15625q-0.265625 -0.171875 -0.671875 -0.375q-0.390625 -0.203125 -0.9375 -0.375q-0.546875 -0.171875 -1.21875 -0.171875q-0.640625 0 -1.109375 0.171875q-0.46875 0.171875 -0.78125 0.453125q-0.296875 0.28125 -0.453125 0.671875q-0.140625 0.390625 -0.140625 0.8125q0 0.640625 0.28125 1.09375q0.296875 0.453125 0.78125 0.8125q0.484375 0.34375 1.109375 0.640625q0.625 0.296875 1.265625 0.59375q0.640625 0.296875 1.265625 0.65625q0.625 0.359375 1.109375 0.84375q0.484375 0.484375 0.78125 1.15625q0.296875 0.65625 0.296875 1.5625zm10.605469 3.96875q0 0.140625 -0.09375 0.21875q-0.09375 0.0625 -0.265625 0.09375q-0.15625 0.046875 -0.46875 0.046875q-0.296875 0 -0.484375 -0.046875q-0.1875 -0.03125 -0.265625 -0.09375q-0.078125 -0.078125 -0.078125 -0.21875l0 -1.0625q-0.6875 0.75 -1.546875 1.15625q-0.84375 0.40625 -1.796875 0.40625q-0.828125 0 -1.5 -0.21875q-0.671875 -0.21875 -1.15625 -0.625q-0.46875 -0.40625 -0.734375 -1.0q-0.265625 -0.609375 -0.265625 -1.359375q0 -0.890625 0.359375 -1.546875q0.375 -0.65625 1.046875 -1.09375q0.6875 -0.4375 1.671875 -0.65625q0.984375 -0.21875 2.203125 -0.21875l1.453125 0l0 -0.8125q0 -0.609375 -0.125 -1.078125q-0.125 -0.46875 -0.421875 -0.78125q-0.28125 -0.3125 -0.734375 -0.46875q-0.453125 -0.15625 -1.125 -0.15625q-0.71875 0 -1.296875 0.171875q-0.5625 0.171875 -0.984375 0.375q-0.421875 0.203125 -0.71875 0.375q-0.28125 0.171875 -0.421875 0.171875q-0.09375 0 -0.171875 -0.046875q-0.0625 -0.046875 -0.125 -0.140625q-0.046875 -0.09375 -0.078125 -0.234375q-0.015625 -0.15625 -0.015625 -0.328125q0 -0.296875 0.03125 -0.46875q0.046875 -0.171875 0.203125 -0.3125q0.171875 -0.15625 0.546875 -0.359375q0.390625 -0.21875 0.890625 -0.375q0.515625 -0.171875 1.109375 -0.28125q0.59375 -0.125 1.203125 -0.125q1.140625 0 1.9375 0.265625q0.796875 0.25 1.28125 0.75q0.5 0.5 0.71875 1.25q0.21875 0.734375 0.21875 1.71875l0 7.109375zm-1.921875 -4.8125l-1.640625 0q-0.796875 0 -1.390625 0.140625q-0.578125 0.125 -0.96875 0.390625q-0.390625 0.265625 -0.578125 0.640625q-0.171875 0.359375 -0.171875 0.84375q0 0.8125 0.515625 1.296875q0.53125 0.484375 1.46875 0.484375q0.75 0 1.40625 -0.375q0.65625 -0.390625 1.359375 -1.1875l0 -2.234375zm11.261719 -10.078125q0 0.21875 -0.03125 0.359375q-0.015625 0.125 -0.046875 0.21875q-0.03125 0.078125 -0.078125 0.109375q-0.046875 0.015625 -0.125 0.015625q-0.078125 0 -0.203125 -0.046875q-0.125 -0.046875 -0.296875 -0.109375q-0.171875 -0.078125 -0.421875 -0.125q-0.234375 -0.046875 -0.546875 -0.046875q-0.4375 0 -0.75 0.140625q-0.296875 0.140625 -0.484375 0.4375q-0.1875 0.296875 -0.265625 0.78125q-0.078125 0.46875 -0.078125 1.140625l0 1.15625l2.34375 0q0.09375 0 0.15625 0.046875q0.078125 0.03125 0.125 0.140625q0.046875 0.09375 0.078125 0.25q0.03125 0.140625 0.03125 0.359375q0 0.421875 -0.109375 0.609375q-0.09375 0.1875 -0.28125 0.1875l-2.34375 0l0 9.25q0 0.09375 -0.046875 0.15625q-0.046875 0.0625 -0.171875 0.125q-0.109375 0.046875 -0.296875 0.0625q-0.1875 0.03125 -0.46875 0.03125q-0.28125 0 -0.46875 -0.03125q-0.1875 -0.015625 -0.296875 -0.0625q-0.109375 -0.0625 -0.15625 -0.125q-0.046875 -0.0625 -0.046875 -0.15625l0 -9.25l-1.484375 0q-0.1875 0 -0.28125 -0.1875q-0.09375 -0.1875 -0.09375 -0.609375q0 -0.21875 0.015625 -0.359375q0.03125 -0.15625 0.078125 -0.25q0.046875 -0.109375 0.109375 -0.140625q0.078125 -0.046875 0.171875 -0.046875l1.484375 0l0 -1.09375q0 -1.109375 0.203125 -1.890625q0.203125 -0.796875 0.625 -1.296875q0.421875 -0.5 1.0625 -0.734375q0.640625 -0.25 1.515625 -0.25q0.40625 0 0.78125 0.078125q0.390625 0.078125 0.59375 0.171875q0.21875 0.078125 0.28125 0.15625q0.078125 0.0625 0.125 0.171875q0.046875 0.109375 0.0625 0.265625q0.03125 0.15625 0.03125 0.390625zm10.542969 9.140625q0 0.46875 -0.234375 0.65625q-0.21875 0.1875 -0.515625 0.1875l-6.921875 0q0 0.890625 0.171875 1.59375q0.1875 0.703125 0.59375 1.203125q0.40625 0.5 1.0625 0.78125q0.65625 0.265625 1.609375 0.265625q0.75 0 1.328125 -0.125q0.59375 -0.125 1.015625 -0.28125q0.4375 -0.15625 0.703125 -0.265625q0.28125 -0.125 0.421875 -0.125q0.078125 0 0.140625 0.046875q0.078125 0.03125 0.109375 0.109375q0.03125 0.078125 0.046875 0.234375q0.015625 0.140625 0.015625 0.359375q0 0.140625 -0.015625 0.265625q0 0.109375 -0.015625 0.203125q-0.015625 0.078125 -0.0625 0.15625q-0.046875 0.0625 -0.109375 0.125q-0.0625 0.0625 -0.375 0.21875q-0.3125 0.140625 -0.828125 0.28125q-0.5 0.140625 -1.171875 0.25q-0.65625 0.109375 -1.40625 0.109375q-1.296875 0 -2.28125 -0.359375q-0.96875 -0.359375 -1.640625 -1.078125q-0.671875 -0.71875 -1.015625 -1.796875q-0.328125 -1.078125 -0.328125 -2.5q0 -1.359375 0.34375 -2.4375q0.359375 -1.09375 1.015625 -1.84375q0.671875 -0.765625 1.609375 -1.171875q0.9375 -0.40625 2.09375 -0.40625q1.234375 0 2.109375 0.40625q0.875 0.390625 1.4375 1.078125q0.5625 0.671875 0.828125 1.578125q0.265625 0.90625 0.265625 1.9375l0 0.34375zm-1.953125 -0.5625q0.046875 -1.53125 -0.671875 -2.390625q-0.703125 -0.875 -2.09375 -0.875q-0.71875 0 -1.265625 0.28125q-0.53125 0.265625 -0.90625 0.71875q-0.359375 0.4375 -0.5625 1.03125q-0.1875 0.578125 -0.21875 1.234375l5.71875 0z" fill-rule="nonzero"/></g></svg>